<svg fill="none" height="288" viewBox="0 0 288 288" width="288" xmlns="http://www.w3.org/2000/svg">
  <path
      d="M116.376 237.666C111.553 237.704 106.769 236.787 102.302 234.967C97.8344 233.147 93.7714 230.461 90.3471 227.064C86.9228 223.666 84.2049 219.624 82.3502 215.171C80.4954 210.718 79.5405 205.942 79.5405 201.118C79.5405 196.295 80.4954 191.519 82.3502 187.066C84.2049 182.613 86.9228 178.571 90.3471 175.173C93.7714 171.776 97.8344 169.09 102.302 167.27C106.769 165.45 111.553 164.533 116.376 164.571H127.964V158.509C125.849 157.903 123.766 157.189 121.725 156.369C110.013 151.345 100.397 142.428 94.5075 131.127C88.6174 119.826 86.8148 106.836 89.4049 94.3583C91.9949 81.8805 98.8185 70.6815 108.72 62.6583C118.621 54.6351 130.991 50.281 143.735 50.3335C156.478 50.386 168.812 54.8419 178.647 62.9464C188.482 71.0509 195.213 82.3057 197.7 94.8045C200.187 107.303 198.278 120.278 192.295 131.53C186.312 142.782 176.623 151.62 164.871 156.547C163.425 157.188 161.936 157.725 160.413 158.151V164.748H172.001C181.67 164.748 190.944 168.59 197.781 175.427C204.619 182.264 208.46 191.538 208.46 201.207C208.46 210.877 204.619 220.15 197.781 226.988C190.944 233.825 181.67 237.666 172.001 237.666H116.376ZM89.455 201.117C89.48 208.249 92.3244 215.082 97.3679 220.124C102.411 225.167 109.244 228.01 116.376 228.034H172.176C179.316 228.034 186.164 225.198 191.213 220.149C196.261 215.1 199.098 208.253 199.098 201.113C199.098 193.973 196.261 187.125 191.213 182.077C186.164 177.028 179.316 174.192 172.176 174.192H116.376C112.84 174.188 109.337 174.883 106.069 176.235C102.801 177.587 99.8318 179.57 97.3312 182.071C94.8307 184.572 92.8479 187.542 91.4964 190.81C90.1449 194.078 89.4512 197.581 89.455 201.117ZM97.1208 105.022C97.0852 114.163 99.7631 123.108 104.815 130.725C109.868 138.343 117.067 144.289 125.501 147.812C133.936 151.335 143.226 152.275 152.195 150.513C161.165 148.752 169.409 144.368 175.885 137.918C182.361 131.467 186.777 123.239 188.573 114.277C190.37 105.315 189.466 96.021 185.976 87.5728C182.487 79.1246 176.568 71.9021 168.971 66.8202C161.373 61.7382 152.438 59.0254 143.298 59.0253C131.083 59.0276 119.366 63.8687 110.712 72.4891C102.058 81.1095 97.1708 92.8072 97.1208 105.022ZM152.745 201.117C152.745 198.085 153.644 195.121 155.329 192.6C157.014 190.078 159.408 188.113 162.21 186.953C165.011 185.792 168.094 185.489 171.068 186.08C174.042 186.672 176.774 188.132 178.918 190.276C181.062 192.42 182.522 195.152 183.114 198.126C183.705 201.1 183.402 204.183 182.241 206.984C181.081 209.786 179.116 212.18 176.595 213.865C174.073 215.55 171.109 216.449 168.077 216.449C166.059 216.464 164.059 216.077 162.192 215.312C160.325 214.547 158.629 213.418 157.202 211.992C155.776 210.565 154.647 208.869 153.882 207.002C153.117 205.135 152.73 203.135 152.745 201.117ZM160.589 201.117C160.589 202.634 161.038 204.116 161.881 205.376C162.723 206.637 163.921 207.62 165.322 208.2C166.722 208.78 168.264 208.932 169.751 208.636C171.238 208.34 172.604 207.609 173.676 206.537C174.748 205.465 175.478 204.099 175.773 202.611C176.069 201.124 175.917 199.583 175.336 198.182C174.756 196.782 173.773 195.584 172.512 194.742C171.251 193.9 169.769 193.451 168.252 193.452C166.224 193.467 164.283 194.279 162.849 195.714C161.414 197.148 160.604 199.089 160.589 201.117ZM102.825 201.117C102.825 198.085 103.724 195.121 105.408 192.6C107.093 190.078 109.487 188.113 112.289 186.953C115.09 185.792 118.173 185.489 121.147 186.08C124.121 186.672 126.853 188.132 128.997 190.276C131.141 192.42 132.601 195.152 133.193 198.126C133.785 201.1 133.481 204.183 132.321 206.984C131.16 209.786 129.195 212.18 126.674 213.865C124.153 215.55 121.188 216.449 118.156 216.449C114.09 216.449 110.19 214.834 107.315 211.958C104.44 209.083 102.825 205.183 102.825 201.117ZM110.49 201.117C110.49 202.633 110.94 204.116 111.782 205.376C112.625 206.637 113.822 207.619 115.222 208.2C116.623 208.78 118.165 208.932 119.652 208.636C121.139 208.34 122.504 207.61 123.577 206.538C124.649 205.466 125.379 204.1 125.675 202.613C125.97 201.126 125.818 199.584 125.238 198.184C124.658 196.783 123.676 195.586 122.415 194.743C121.154 193.901 119.672 193.452 118.156 193.452C116.137 193.497 114.214 194.319 112.786 195.747C111.358 197.175 110.536 199.098 110.49 201.117ZM131.706 129.981C131.706 127.69 132.385 125.449 133.658 123.544C134.932 121.638 136.741 120.153 138.859 119.276C140.976 118.399 143.306 118.169 145.554 118.616C147.801 119.064 149.866 120.167 151.487 121.788C153.107 123.408 154.211 125.473 154.658 127.721C155.105 129.968 154.876 132.298 153.999 134.416C153.121 136.533 151.636 138.343 149.731 139.616C147.825 140.889 145.585 141.569 143.293 141.569C141.771 141.572 140.262 141.274 138.855 140.693C137.448 140.112 136.169 139.258 135.093 138.182C134.016 137.105 133.163 135.826 132.582 134.419C132 133.012 131.703 131.504 131.706 129.981ZM136.341 129.981C136.343 131.825 137.076 133.592 138.38 134.895C139.683 136.198 141.45 136.931 143.293 136.934C145.136 136.931 146.903 136.198 148.207 134.895C149.51 133.592 150.243 131.825 150.246 129.981C150.243 128.138 149.51 126.371 148.207 125.068C146.903 123.764 145.136 123.031 143.293 123.029C141.459 123.061 139.71 123.804 138.413 125.101C137.116 126.398 136.373 128.148 136.341 129.981ZM162.371 117.501C162.371 116.161 162.769 114.852 163.513 113.738C164.258 112.624 165.315 111.756 166.553 111.244C167.791 110.731 169.152 110.597 170.466 110.858C171.78 111.119 172.987 111.764 173.934 112.711C174.882 113.658 175.527 114.864 175.789 116.178C176.051 117.491 175.918 118.853 175.406 120.091C174.895 121.329 174.027 122.388 172.914 123.133C171.801 123.878 170.492 124.276 169.152 124.278C168.263 124.278 167.381 124.103 166.559 123.762C165.737 123.422 164.99 122.923 164.361 122.294C163.732 121.665 163.233 120.918 162.893 120.096C162.552 119.274 162.377 118.393 162.378 117.503L162.371 117.501ZM166.293 117.501C166.292 118.065 166.459 118.616 166.772 119.086C167.085 119.555 167.53 119.921 168.051 120.137C168.572 120.354 169.145 120.411 169.698 120.302C170.252 120.192 170.76 119.922 171.16 119.523C171.559 119.125 171.832 118.617 171.943 118.064C172.054 117.511 171.998 116.938 171.784 116.416C171.569 115.895 171.204 115.448 170.736 115.134C170.267 114.82 169.716 114.651 169.152 114.65C168.776 114.645 168.403 114.715 168.055 114.857C167.706 114.999 167.39 115.209 167.124 115.475C166.858 115.741 166.648 116.057 166.507 116.405C166.365 116.754 166.294 117.127 166.299 117.503L166.293 117.501ZM110.493 117.501C110.493 116.161 110.89 114.851 111.634 113.737C112.379 112.623 113.437 111.754 114.675 111.242C115.913 110.729 117.275 110.595 118.589 110.856C119.903 111.117 121.11 111.763 122.058 112.71C123.005 113.658 123.65 114.865 123.912 116.179C124.173 117.493 124.039 118.855 123.526 120.093C123.014 121.331 122.145 122.389 121.031 123.134C119.917 123.878 118.607 124.275 117.267 124.275C116.378 124.276 115.496 124.101 114.674 123.76C113.852 123.42 113.105 122.921 112.476 122.292C111.847 121.663 111.348 120.916 111.008 120.094C110.667 119.271 110.492 118.39 110.493 117.501ZM114.414 117.501C114.414 118.065 114.582 118.616 114.895 119.086C115.209 119.555 115.654 119.92 116.176 120.136C116.697 120.352 117.27 120.409 117.824 120.299C118.377 120.189 118.886 119.917 119.285 119.518C119.684 119.119 119.955 118.611 120.065 118.057C120.176 117.504 120.119 116.93 119.903 116.409C119.687 115.887 119.322 115.442 118.852 115.128C118.383 114.815 117.832 114.648 117.267 114.648C116.891 114.643 116.518 114.713 116.17 114.855C115.821 114.997 115.505 115.207 115.239 115.472C114.973 115.738 114.763 116.055 114.622 116.403C114.48 116.751 114.409 117.125 114.414 117.501ZM149.001 89.6906C148.966 87.0028 149.73 84.3651 151.197 82.113C152.665 79.8608 154.769 78.0959 157.242 77.0426C159.715 75.9893 162.445 75.6952 165.086 76.1978C167.726 76.7004 170.158 77.9769 172.071 79.865C173.984 81.7531 175.293 84.1675 175.83 86.8012C176.367 89.435 176.109 92.169 175.089 94.6557C174.068 97.1424 172.331 99.2695 170.099 100.766C167.866 102.263 165.239 103.063 162.551 103.062C160.776 103.099 159.013 102.78 157.364 102.123C155.715 101.466 154.215 100.485 152.951 99.2388C151.688 97.9921 150.688 96.5048 150.009 94.8648C149.331 93.2247 148.988 91.4653 149.001 89.6906ZM154.35 89.6906C154.345 90.7455 154.55 91.7908 154.951 92.7663C155.353 93.7418 155.944 94.6281 156.69 95.374C157.436 96.1199 158.322 96.7108 159.297 97.1124C160.273 97.514 161.318 97.7185 162.373 97.7141C163.96 97.7141 165.511 97.2435 166.831 96.3619C168.15 95.4802 169.179 94.2271 169.786 92.761C170.393 91.2949 170.552 89.6817 170.242 88.1253C169.933 86.5689 169.169 85.1392 168.047 84.0171C166.924 82.895 165.495 82.1308 163.938 81.8212C162.382 81.5116 160.769 81.6705 159.303 82.2778C157.836 82.8851 156.583 83.9135 155.702 85.2329C154.82 86.5524 154.35 88.1037 154.35 89.6906ZM110.49 89.6906C110.49 87.0459 111.275 84.4606 112.744 82.2616C114.213 80.0626 116.302 78.3488 118.745 77.3367C121.188 76.3246 123.877 76.0598 126.471 76.5758C129.065 77.0917 131.447 78.3652 133.317 80.2353C135.187 82.1054 136.461 84.488 136.977 87.0819C137.493 89.6757 137.228 92.3643 136.216 94.8077C135.204 97.2511 133.49 99.3395 131.291 100.809C129.092 102.278 126.507 103.062 123.862 103.062C122.101 103.08 120.355 102.746 118.724 102.08C117.094 101.414 115.613 100.43 114.368 99.1847C113.123 97.9395 112.138 96.4585 111.473 94.8283C110.807 93.1981 110.473 91.4514 110.49 89.6906ZM116.016 89.6906C116.052 91.795 116.912 93.8013 118.413 95.277C119.914 96.7527 121.934 97.5797 124.039 97.5797C126.143 97.5797 128.164 96.7527 129.664 95.277C131.165 93.8013 132.026 91.795 132.061 89.6906C132.066 88.6357 131.861 87.5903 131.459 86.6148C131.058 85.6394 130.467 84.7531 129.721 84.0071C128.975 83.2612 128.089 82.6704 127.113 82.2687C126.138 81.8671 125.092 81.6626 124.038 81.6671C122.983 81.6626 121.937 81.8671 120.962 82.2687C119.986 82.6704 119.1 83.2612 118.354 84.0071C117.608 84.7531 117.017 85.6394 116.616 86.6148C116.214 87.5903 116.012 88.6357 116.016 89.6906Z"
      fill="white"/>
</svg>
