<svg fill="none" height="288" viewBox="0 0 288 288" width="288" xmlns="http://www.w3.org/2000/svg">
  <path clip-rule="evenodd"
        d="M175.552 158.411V162.236C185.861 162.337 195.722 166.464 203.029 173.736C210.337 181.008 214.511 190.848 214.662 201.157C214.662 222.716 196.538 240.266 174.407 240.266H113.547C108.373 240.423 103.22 239.549 98.3868 237.696C93.5539 235.842 89.1381 233.045 85.3965 229.469C81.6549 225.892 78.6623 221.606 76.5928 216.862C74.5234 212.117 73.4185 207.008 73.3426 201.833C73.2666 196.657 74.2211 191.518 76.1504 186.715C78.0797 181.912 80.9453 177.54 84.5803 173.855C88.2153 170.17 92.5471 167.245 97.3235 165.25C102.1 163.256 107.225 162.231 112.402 162.236V159.565C101.73 154.008 92.7932 145.622 86.5697 135.325C80.3462 125.027 77.076 113.216 77.1171 101.185C77.1171 81.1529 88.9476 55.7774 100.198 51.1987C111.448 46.6199 175.552 46.4287 185.473 51.3899C195.393 56.3512 208.558 81.3509 208.558 101.376C208.557 112.945 205.505 124.31 199.711 134.324C193.916 144.337 185.583 152.646 175.552 158.411ZM103.627 61.1212C93.8954 64.7347 86.8371 85.5404 86.8371 101.185H86.8461C86.8461 115.984 92.725 130.177 103.19 140.641C113.654 151.106 127.847 156.985 142.646 156.985C157.445 156.985 171.638 151.106 182.103 140.641C192.567 130.177 198.446 115.984 198.446 101.185C198.446 85.5404 189.86 63.7919 181.657 61.1212C173.453 58.4504 113.358 57.5077 103.627 61.1212ZM113.547 229.772H174.407C174.923 229.729 175.443 229.794 175.933 229.963C179.691 229.863 183.392 229.024 186.826 227.493C190.26 225.962 193.358 223.77 195.945 221.042C198.532 218.314 200.555 215.103 201.901 211.592C203.247 208.082 203.888 204.341 203.788 200.583C203.687 196.825 202.848 193.123 201.317 189.689C199.787 186.256 197.595 183.157 194.866 180.57C192.138 177.984 188.927 175.96 185.417 174.614C181.906 173.269 178.165 172.628 174.407 172.728H111.83C104.266 172.956 97.1013 176.179 91.9133 181.689C86.7254 187.199 83.9387 194.544 84.1664 202.108C84.394 209.673 87.6174 216.837 93.1273 222.025C98.6372 227.213 105.982 230 113.547 229.772ZM121.285 71.311C122.665 70.3886 124.289 69.8963 125.949 69.8963C128.159 69.9477 130.265 70.8487 131.828 72.412C133.391 73.9753 134.292 76.0808 134.344 78.291C134.344 79.9513 133.851 81.5744 132.929 82.9549C132.006 84.3354 130.695 85.4114 129.161 86.0468C127.627 86.6821 125.94 86.8484 124.311 86.5245C122.683 86.2006 121.187 85.401 120.013 84.227C118.839 83.053 118.039 81.5572 117.715 79.9288C117.391 78.3003 117.558 76.6124 118.193 75.0785C118.828 73.5445 119.904 72.2335 121.285 71.311ZM123.935 81.3049C124.531 81.7032 125.232 81.9158 125.949 81.9158C126.425 81.9161 126.896 81.8225 127.336 81.6405C127.776 81.4584 128.176 81.1914 128.513 80.8548C128.849 80.5181 129.116 80.1184 129.298 79.6785C129.48 79.2386 129.574 78.7671 129.574 78.291C129.574 77.5741 129.361 76.8733 128.963 76.2772C128.564 75.6811 127.998 75.2165 127.336 74.9422C126.674 74.6678 125.945 74.5961 125.242 74.7359C124.539 74.8758 123.893 75.221 123.386 75.7279C122.879 76.2349 122.534 76.8807 122.394 77.5839C122.254 78.287 122.326 79.0158 122.6 79.6782C122.874 80.3405 123.339 80.9066 123.935 81.3049ZM159.717 69.8963C158.057 69.8963 156.434 70.3886 155.053 71.311C153.673 72.2335 152.597 73.5445 151.961 75.0785C151.326 76.6124 151.16 78.3003 151.483 79.9288C151.807 81.5572 152.607 83.053 153.781 84.227C154.955 85.401 156.451 86.2006 158.079 86.5245C159.708 86.8484 161.395 86.6821 162.929 86.0468C164.463 85.4114 165.774 84.3354 166.697 82.9549C167.619 81.5744 168.112 79.9513 168.112 78.291C168.092 76.0706 167.202 73.9466 165.631 72.3765C164.061 70.8063 161.937 69.9156 159.717 69.8963ZM159.717 81.9158C159.241 81.9161 158.769 81.8225 158.329 81.6405C157.89 81.4584 157.49 81.1914 157.153 80.8548C156.816 80.5181 156.55 80.1184 156.367 79.6785C156.185 79.2386 156.092 78.7671 156.092 78.291C156.076 77.8106 156.158 77.332 156.335 76.8848C156.511 76.4377 156.778 76.0315 157.118 75.6916C157.457 75.3517 157.864 75.0853 158.311 74.9089C158.758 74.7326 159.236 74.65 159.717 74.6663C160.678 74.6663 161.6 75.0482 162.28 75.7279C162.96 76.4077 163.342 77.3297 163.342 78.291C163.342 79.2524 162.96 80.1743 162.28 80.8541C161.6 81.5339 160.678 81.9158 159.717 81.9158ZM134.894 89.4455C137.216 87.8941 139.946 87.066 142.738 87.066C144.594 87.0616 146.432 87.4237 148.147 88.1317C149.862 88.8396 151.42 89.8794 152.732 91.1914C154.044 92.5033 155.083 94.0615 155.791 95.7765C156.499 97.4915 156.862 99.3294 156.857 101.185C156.857 103.977 156.029 106.707 154.478 109.029C152.926 111.351 150.721 113.16 148.141 114.229C145.561 115.297 142.723 115.577 139.984 115.032C137.245 114.487 134.729 113.143 132.755 111.168C130.78 109.194 129.436 106.678 128.891 103.939C128.346 101.2 128.626 98.3616 129.694 95.7818C130.763 93.2019 132.573 90.9968 134.894 89.4455ZM138.817 107.053C139.978 107.829 141.342 108.243 142.738 108.243C143.666 108.245 144.585 108.064 145.442 107.71C146.299 107.356 147.078 106.836 147.734 106.18C148.39 105.524 148.91 104.746 149.264 103.888C149.618 103.031 149.799 102.112 149.797 101.185C149.797 99.7888 149.383 98.4241 148.607 97.2634C147.831 96.1027 146.729 95.198 145.439 94.6638C144.15 94.1296 142.73 93.9898 141.361 94.2621C139.992 94.5345 138.734 95.2067 137.747 96.1938C136.76 97.1809 136.088 98.4386 135.816 99.8078C135.543 101.177 135.683 102.596 136.217 103.886C136.752 105.176 137.656 106.278 138.817 107.053ZM173.262 183.985C169.828 183.985 166.472 185.003 163.617 186.911C160.762 188.818 158.536 191.53 157.222 194.702C155.908 197.874 155.565 201.365 156.234 204.733C156.904 208.1 158.558 211.194 160.986 213.622C163.414 216.05 166.507 217.703 169.875 218.373C173.243 219.043 176.733 218.699 179.906 217.385C183.078 216.071 185.789 213.846 187.697 210.991C189.605 208.136 190.623 204.779 190.623 201.346C190.647 199.059 190.214 196.791 189.35 194.674C188.486 192.557 187.208 190.634 185.591 189.017C183.974 187.4 182.051 186.122 179.934 185.258C177.817 184.394 175.548 183.961 173.262 183.985ZM173.262 209.932C172.109 209.935 170.966 209.71 169.9 209.27C168.834 208.83 167.866 208.184 167.05 207.368C166.235 206.553 165.589 205.584 165.149 204.518C164.709 203.452 164.484 202.31 164.487 201.157C164.468 199.999 164.682 198.85 165.116 197.776C165.551 196.703 166.196 195.728 167.015 194.91C167.834 194.091 168.808 193.446 169.882 193.011C170.955 192.577 172.104 192.363 173.262 192.382C174.415 192.379 175.557 192.604 176.623 193.044C177.689 193.484 178.658 194.13 179.473 194.945C180.289 195.761 180.935 196.729 181.375 197.795C181.815 198.861 182.04 200.004 182.037 201.157C182.056 202.314 181.842 203.464 181.407 204.537C180.973 205.61 180.327 206.585 179.509 207.404C178.69 208.222 177.715 208.868 176.642 209.302C175.569 209.736 174.419 209.951 173.262 209.932ZM105.047 185.765C107.902 183.857 111.258 182.839 114.692 182.839C119.291 182.856 123.698 184.69 126.95 187.943C130.202 191.195 132.037 195.601 132.053 200.2C132.053 203.634 131.035 206.991 129.127 209.846C127.22 212.701 124.508 214.926 121.336 216.24C118.164 217.554 114.673 217.898 111.305 217.228C107.937 216.558 104.844 214.904 102.416 212.476C99.9881 210.048 98.3346 206.955 97.6647 203.587C96.9948 200.22 97.3386 196.729 98.6526 193.557C99.9667 190.384 102.192 187.673 105.047 185.765ZM111.331 208.316C112.397 208.756 113.539 208.981 114.692 208.978C117.001 208.92 119.2 207.978 120.834 206.344C122.467 204.711 123.41 202.512 123.467 200.203C123.467 197.875 122.543 195.643 120.897 193.998C119.251 192.352 117.019 191.428 114.692 191.428C112.365 191.428 110.133 192.352 108.487 193.998C106.842 195.643 105.917 197.875 105.917 200.203C105.914 201.356 106.139 202.498 106.579 203.564C107.019 204.63 107.665 205.599 108.481 206.414C109.296 207.229 110.265 207.876 111.331 208.316Z"
        fill="white"
        fill-rule="evenodd"/>
</svg>
