<svg fill="none" height="288" viewBox="0 0 288 288" width="288" xmlns="http://www.w3.org/2000/svg">
  <path clip-rule="evenodd"
        d="M96.9994 214.343C110.912 223.639 127.268 228.6 144 228.6L144.018 228.594C166.444 228.563 187.943 219.639 203.799 203.78C219.655 187.92 228.574 166.42 228.6 143.994C228.599 127.262 223.636 110.906 214.339 96.9943C205.042 83.0828 191.829 72.2404 176.37 65.8383C160.912 59.4361 143.902 57.7617 127.491 61.0268C111.081 64.2919 96.0072 72.3498 84.1763 84.1816C72.3455 96.0134 64.2888 111.088 61.025 127.498C57.7612 143.909 59.437 160.919 65.8404 176.377C72.2437 191.835 83.0871 205.048 96.9994 214.343ZM103.886 83.982C111.853 78.659 120.758 75.0011 130.07 73.1702C127.172 74.6381 124.508 76.5619 122.186 78.8836C117.867 83.2035 114.925 88.7074 113.733 94.6994C112.541 100.691 113.152 106.902 115.49 112.546C117.828 118.191 121.787 123.015 126.866 126.41C131.946 129.804 137.918 131.616 144.027 131.617C152.218 131.611 160.072 128.354 165.865 122.562C171.657 116.77 174.913 108.915 174.919 100.724C174.919 94.6147 173.107 88.6427 169.713 83.5632C166.772 79.1628 162.758 75.6034 158.068 73.2104C171.97 75.9845 184.862 82.8116 195.033 92.983C208.569 106.519 216.183 124.873 216.202 144.016C216.202 158.297 211.968 172.256 204.034 184.13C196.1 196.003 184.824 205.258 171.631 210.723C167.958 212.244 164.183 213.452 160.344 214.344C162.041 213.217 163.634 211.917 165.095 210.456C170.887 204.664 174.144 196.809 174.15 188.618C174.15 182.509 172.338 176.537 168.943 171.457C165.549 166.378 160.724 162.419 155.08 160.081C149.435 157.743 143.225 157.132 137.233 158.324C131.241 159.516 125.737 162.458 121.417 166.778C117.097 171.097 114.155 176.601 112.963 182.593C111.771 188.585 112.383 194.796 114.72 200.44C116.935 205.788 120.605 210.4 125.305 213.756C113.092 210.483 101.924 204.051 92.9451 195.071C82.8474 184.973 75.9707 172.108 73.1848 158.102C70.3988 144.096 71.8287 129.579 77.2935 116.385C82.7584 103.192 92.0127 91.9157 103.886 83.982ZM153.607 86.3646L143.993 95.9789L137.317 89.3031L134.379 86.3646C133.792 85.8104 133.013 85.5068 132.206 85.5182C131.399 85.5297 130.628 85.8554 130.057 86.426C129.487 86.9967 129.161 87.7674 129.15 88.5744C129.138 89.3813 129.442 90.161 129.996 90.7476L139.61 100.362L132.91 107.062L129.969 110.003C129.415 110.59 129.111 111.369 129.123 112.176C129.134 112.983 129.46 113.754 130.03 114.325C130.601 114.895 131.372 115.221 132.179 115.233C132.986 115.244 133.765 114.94 134.352 114.386L143.993 104.745L150.694 111.445L153.634 114.386C154.221 114.94 155.001 115.244 155.808 115.233C156.615 115.221 157.385 114.895 157.956 114.325C158.527 113.754 158.852 112.983 158.864 112.176C158.875 111.369 158.572 110.59 158.017 110.003L148.376 100.362L155.052 93.6861L157.99 90.7476C158.545 90.161 158.848 89.3813 158.837 88.5744C158.825 87.7674 158.5 86.9967 157.929 86.426C157.358 85.8554 156.588 85.5297 155.781 85.5182C154.974 85.5068 154.194 85.8104 153.607 86.3646ZM130.009 178.943L139.642 188.575L132.957 195.26L130.009 198.201C129.455 198.787 129.152 199.567 129.163 200.374C129.175 201.181 129.5 201.952 130.071 202.522C130.642 203.093 131.412 203.419 132.219 203.43C133.026 203.442 133.806 203.138 134.392 202.584L144.021 192.955L150.709 199.643L153.648 202.582C154.235 203.136 155.014 203.439 155.821 203.428C156.628 203.417 157.399 203.091 157.97 202.52C158.54 201.95 158.866 201.179 158.877 200.372C158.889 199.565 158.585 198.785 158.031 198.199L148.404 188.572L155.092 181.884L158.031 178.945C158.585 178.359 158.889 177.579 158.877 176.772C158.866 175.965 158.54 175.194 157.97 174.624C157.399 174.053 156.628 173.727 155.821 173.716C155.014 173.704 154.235 174.008 153.648 174.562L153.657 174.56L144.025 184.192L137.331 177.499L134.392 174.56C133.806 174.006 133.026 173.702 132.219 173.714C131.412 173.725 130.642 174.051 130.071 174.622C129.5 175.192 129.175 175.963 129.163 176.77C129.152 177.577 129.455 178.356 130.009 178.943ZM102.622 169.734C97.4719 169.734 92.4371 168.206 88.1546 165.345C83.8721 162.483 80.5343 158.416 78.5632 153.658C76.5922 148.899 76.0765 143.663 77.0813 138.612C78.0861 133.56 80.5664 128.92 84.2083 125.278C87.8503 121.636 92.4905 119.156 97.542 118.151C102.594 117.146 107.83 117.662 112.588 119.633C117.347 121.604 121.414 124.942 124.275 129.224C127.137 133.507 128.664 138.542 128.664 143.692C128.664 147.112 127.991 150.499 126.682 153.658C125.374 156.818 123.455 159.689 121.037 162.107C118.619 164.525 115.748 166.443 112.588 167.752C109.429 169.061 106.042 169.734 102.622 169.734ZM102.622 127.56C99.4317 127.56 96.3127 128.506 93.6597 130.279C91.0067 132.051 88.939 134.571 87.718 137.519C86.4969 140.466 86.1775 143.71 86.7999 146.84C87.4224 149.969 88.9589 152.843 91.215 155.1C93.4712 157.356 96.3458 158.892 99.4752 159.515C102.605 160.137 105.848 159.818 108.796 158.597C111.744 157.376 114.263 155.308 116.036 152.655C117.809 150.002 118.755 146.883 118.755 143.692C118.754 139.412 117.055 135.306 114.031 132.277C111.006 129.248 106.903 127.542 102.622 127.535V127.56ZM170.738 165.964C175.018 168.828 180.05 170.359 185.2 170.364C188.622 170.367 192.01 169.696 195.173 168.389C198.335 167.081 201.208 165.164 203.629 162.745C206.05 160.327 207.97 157.455 209.28 154.294C210.59 151.132 211.264 147.744 211.264 144.322C211.264 139.173 209.737 134.139 206.877 129.857C204.016 125.575 199.95 122.237 195.193 120.265C190.436 118.294 185.201 117.777 180.15 118.78C175.099 119.783 170.459 122.261 166.816 125.9C163.173 129.54 160.691 134.178 159.684 139.228C158.677 144.278 159.189 149.514 161.157 154.272C163.124 159.031 166.458 163.1 170.738 165.964ZM176.237 130.909C178.89 129.136 182.009 128.19 185.2 128.19C189.478 128.192 193.58 129.892 196.605 132.917C199.63 135.942 201.33 140.044 201.332 144.322C201.332 147.513 200.386 150.632 198.613 153.285C196.841 155.938 194.321 158.006 191.373 159.227C188.426 160.448 185.182 160.767 182.052 160.145C178.923 159.522 176.049 157.986 173.792 155.73C171.536 153.474 170 150.599 169.377 147.47C168.755 144.34 169.074 141.096 170.295 138.149C171.516 135.201 173.584 132.681 176.237 130.909ZM144.027 74.777C138.895 74.777 133.877 76.299 129.61 79.1504C125.343 82.0019 122.017 86.0547 120.053 90.7965C118.089 95.5382 117.575 100.756 118.576 105.79C119.578 110.823 122.05 115.447 125.679 119.076C129.308 122.705 133.932 125.176 138.966 126.177C144 127.178 149.217 126.664 153.959 124.7C158.7 122.735 162.753 119.409 165.604 115.141C168.455 110.874 169.977 105.856 169.976 100.724C169.97 93.8439 167.234 87.2473 162.369 82.3825C157.504 77.5177 150.907 74.7824 144.027 74.777ZM128.841 167.044C133.108 164.193 138.125 162.671 143.257 162.671C150.138 162.676 156.734 165.412 161.6 170.276C166.465 175.141 169.201 181.738 169.207 188.618C169.207 193.75 167.686 198.768 164.835 203.035C161.983 207.303 157.931 210.629 153.189 212.594C148.448 214.558 143.23 215.072 138.196 214.071C133.163 213.07 128.539 210.599 124.909 206.97C121.28 203.341 118.808 198.717 117.807 193.683C116.806 188.65 117.319 183.432 119.283 178.69C121.247 173.949 124.573 169.896 128.841 167.044Z"
        fill="white"
        fill-rule="evenodd"/>
</svg>
