<svg fill="none" height="288" viewBox="0 0 288 288" width="288" xmlns="http://www.w3.org/2000/svg">
  <path clip-rule="evenodd"
        d="M96.5937 73.0514C110.626 63.6754 127.123 58.6709 144 58.6709C166.631 58.6709 188.334 67.6609 204.337 83.6632C220.339 99.6655 229.329 121.369 229.329 144C229.329 160.876 224.324 177.374 214.948 191.406C205.572 205.438 192.246 216.375 176.654 222.834C161.062 229.292 143.905 230.982 127.353 227.689C110.801 224.397 95.5967 216.27 83.6632 204.337C71.7297 192.403 63.6029 177.199 60.3105 160.647C57.0181 144.095 58.7079 126.938 65.1662 111.346C71.6246 95.7541 82.5614 82.4275 96.5937 73.0514ZM211.869 131.002H218.27H218.277C219.56 138.242 219.76 145.633 218.871 152.933H211.869C210.946 152.933 210.062 153.299 209.409 153.951C208.757 154.604 208.39 155.488 208.39 156.411V183.263C202.7 192.581 195.055 200.552 185.982 206.627C176.91 212.701 166.627 216.734 155.844 218.446V204.894C155.883 203.818 155.493 202.771 154.761 201.982C154.029 201.194 153.013 200.728 151.938 200.687H136.064C134.989 200.728 133.973 201.194 133.241 201.982C132.509 202.771 132.119 203.818 132.158 204.894V218.446C121.423 216.74 111.183 212.734 102.14 206.703C93.0972 200.671 85.4645 192.757 79.7647 183.501V156.411C79.765 155.954 79.6752 155.501 79.5005 155.079C79.3258 154.657 79.0697 154.273 78.7466 153.95C78.4236 153.627 78.04 153.37 77.6178 153.195C77.1957 153.02 76.7432 152.93 76.2862 152.93H69.1379C68.2491 145.631 68.4493 138.24 69.7319 131H76.2862C77.2087 131 78.0935 130.633 78.7458 129.981C79.3982 129.328 79.7647 128.444 79.7647 127.521V104.499C85.465 95.2422 93.0987 87.3268 102.143 81.295C111.187 75.2631 121.428 71.2574 132.165 69.552V82.323C132.087 83.4414 132.454 84.5453 133.185 85.3949C133.916 86.2446 134.953 86.7715 136.071 86.8613H151.92C153.038 86.7715 154.075 86.2447 154.806 85.3951C155.538 84.5455 155.905 83.4416 155.828 82.323V69.552C166.614 71.263 176.9 75.2955 185.975 81.3709C195.05 87.4462 202.698 95.4195 208.39 104.74V127.521C208.39 127.978 208.48 128.431 208.655 128.853C208.829 129.275 209.085 129.659 209.408 129.982C209.731 130.305 210.115 130.562 210.537 130.737C210.959 130.912 211.412 131.002 211.869 131.002ZM190.224 143.757C190.224 145.937 189.577 148.069 188.366 149.882C187.154 151.695 185.433 153.108 183.418 153.943C181.403 154.777 179.187 154.995 177.048 154.57C174.909 154.145 172.945 153.095 171.403 151.553C169.861 150.011 168.811 148.046 168.386 145.908C167.96 143.769 168.179 141.552 169.013 139.538C169.848 137.523 171.261 135.801 173.074 134.59C174.887 133.379 177.018 132.732 179.199 132.732C182.123 132.732 184.927 133.893 186.995 135.961C189.062 138.029 190.224 140.833 190.224 143.757ZM117.41 149.882C118.621 148.069 119.268 145.937 119.268 143.757C119.268 140.833 118.106 138.029 116.039 135.961C113.971 133.893 111.167 132.732 108.243 132.732C106.062 132.732 103.931 133.379 102.118 134.59C100.305 135.801 98.8916 137.523 98.0571 139.538C97.2227 141.552 97.0043 143.769 97.4297 145.908C97.8551 148.046 98.9052 150.011 100.447 151.553C101.989 153.095 103.953 154.145 106.092 154.57C108.231 154.995 110.447 154.777 112.462 153.943C114.477 153.108 116.198 151.695 117.41 149.882Z"
        fill="white"
        fill-rule="evenodd"/>
</svg>
