<svg fill="none" height="288" viewBox="0 0 288 288" width="288" xmlns="http://www.w3.org/2000/svg">
  <path clip-rule="evenodd"
        d="M190.486 77.278C177.123 67.0927 160.789 61.5695 143.987 61.5547C133.908 61.5447 123.927 63.5223 114.613 67.3746C105.3 71.2268 96.8381 76.8779 89.7116 84.0045C82.585 91.1311 76.9338 99.5932 73.0816 108.906C69.2294 118.22 67.2517 128.201 67.2618 138.28C67.2428 155.354 72.9196 171.946 83.3932 185.43C93.8669 198.914 108.539 208.52 125.087 212.725V219.419C125.111 221.274 125.857 223.046 127.168 224.358C128.479 225.671 130.25 226.42 132.105 226.446H155.883C157.738 226.421 159.51 225.674 160.823 224.361C162.135 223.049 162.883 221.277 162.907 219.421V212.755C170.102 210.949 176.994 208.099 183.362 204.295C197.78 195.668 208.972 182.551 215.224 166.955C221.475 151.359 222.441 134.144 217.973 117.946C213.505 101.749 203.849 87.4634 190.486 77.278ZM151.65 203.561V215.194L136.323 215.187V203.586L131.772 202.702C115.757 199.656 101.455 190.746 91.6617 177.714C81.8686 164.682 77.289 148.465 78.8186 132.236C80.3483 116.006 87.877 100.931 99.9326 89.9584C111.988 78.9857 127.703 72.9047 144.005 72.9047C160.306 72.9047 176.021 78.9857 188.077 89.9584C200.133 100.931 207.661 116.006 209.191 132.236C210.721 148.465 206.141 164.682 196.348 177.714C186.555 190.746 172.252 199.656 156.238 202.702L151.65 203.561ZM179.474 97.2273C176.287 95.0979 172.54 93.9613 168.708 93.9613C163.57 93.9673 158.644 96.0109 155.011 99.644C151.378 103.277 149.334 108.203 149.328 113.341C149.328 117.173 150.465 120.92 152.594 124.107C154.724 127.294 157.75 129.778 161.291 131.245C164.833 132.711 168.729 133.095 172.488 132.347C176.247 131.6 179.701 129.754 182.411 127.044C185.121 124.334 186.967 120.881 187.714 117.121C188.462 113.362 188.078 109.466 186.612 105.924C185.145 102.383 182.661 99.3567 179.474 97.2273ZM173.224 120.102C171.887 120.995 170.315 121.472 168.708 121.472C166.552 121.469 164.486 120.611 162.962 119.087C161.438 117.563 160.581 115.496 160.578 113.341C160.579 111.733 161.056 110.161 161.949 108.825C162.843 107.488 164.113 106.447 165.598 105.832C167.084 105.217 168.718 105.056 170.295 105.37C171.872 105.684 173.32 106.458 174.457 107.595C175.593 108.732 176.367 110.181 176.681 111.758C176.994 113.335 176.833 114.969 176.218 116.454C175.602 117.94 174.561 119.209 173.224 120.102ZM116.017 95.361C119.85 95.361 123.597 96.4976 126.784 98.627C129.97 100.756 132.454 103.783 133.921 107.324C135.388 110.865 135.772 114.762 135.024 118.521C134.276 122.28 132.43 125.733 129.72 128.443C127.01 131.154 123.557 132.999 119.798 133.747C116.039 134.495 112.142 134.111 108.601 132.644C105.06 131.178 102.033 128.694 99.9038 125.507C97.7744 122.32 96.6378 118.573 96.6378 114.74C96.6437 109.602 98.6874 104.677 102.32 101.044C105.953 97.4106 110.879 95.3669 116.017 95.361ZM116.017 122.872C117.625 122.872 119.196 122.395 120.533 121.502C121.87 120.609 122.912 119.339 123.527 117.854C124.143 116.369 124.304 114.734 123.99 113.157C123.677 111.581 122.903 110.132 121.766 108.995C120.629 107.858 119.181 107.084 117.604 106.77C116.028 106.456 114.393 106.616 112.908 107.231C111.422 107.846 110.152 108.888 109.259 110.224C108.365 111.561 107.888 113.133 107.888 114.74C107.89 116.896 108.747 118.962 110.271 120.487C111.795 122.011 113.862 122.869 116.017 122.872ZM154.76 158.542C151.573 156.413 147.826 155.276 143.994 155.276C138.856 155.282 133.93 157.326 130.297 160.959C126.664 164.592 124.62 169.517 124.614 174.655C124.614 178.488 125.751 182.235 127.88 185.422C130.01 188.609 133.036 191.093 136.577 192.559C140.119 194.026 144.015 194.41 147.774 193.662C151.534 192.914 154.987 191.069 157.697 188.358C160.407 185.648 162.253 182.195 163 178.436C163.748 174.677 163.364 170.78 161.898 167.239C160.431 163.698 157.947 160.671 154.76 158.542ZM148.51 181.417C147.173 182.31 145.601 182.787 143.994 182.787C141.838 182.784 139.772 181.926 138.248 180.402C136.724 178.877 135.867 176.811 135.864 174.655C135.865 173.048 136.342 171.476 137.235 170.14C138.129 168.803 139.399 167.761 140.884 167.146C142.37 166.532 144.004 166.371 145.581 166.685C147.158 166.999 148.606 167.773 149.743 168.91C150.879 170.047 151.653 171.496 151.967 173.072C152.28 174.649 152.119 176.284 151.504 177.769C150.888 179.254 149.847 180.524 148.51 181.417ZM107.159 145.403C109.256 145.403 111.305 146.025 113.049 147.19C114.792 148.355 116.151 150.011 116.954 151.948C117.756 153.885 117.966 156.017 117.557 158.074C117.148 160.13 116.138 162.019 114.656 163.502C113.173 164.985 111.284 165.994 109.227 166.403C107.171 166.813 105.039 166.603 103.102 165.8C101.164 164.998 99.5085 163.639 98.3435 161.895C97.1786 160.152 96.5568 158.102 96.5568 156.005C96.5597 153.194 97.6777 150.499 99.6653 148.512C101.653 146.524 104.348 145.406 107.159 145.403ZM107.159 159.857C107.921 159.857 108.665 159.631 109.299 159.208C109.932 158.785 110.426 158.183 110.718 157.479C111.009 156.775 111.085 156.001 110.937 155.254C110.788 154.506 110.421 153.82 109.883 153.281C109.344 152.743 108.657 152.376 107.91 152.227C107.163 152.079 106.389 152.155 105.685 152.446C104.981 152.738 104.379 153.232 103.956 153.865C103.533 154.499 103.307 155.243 103.307 156.005C103.308 157.026 103.714 158.005 104.436 158.728C105.158 159.45 106.138 159.856 107.159 159.857ZM185.555 147.19C183.812 146.025 181.762 145.403 179.665 145.403C176.854 145.406 174.159 146.524 172.172 148.512C170.184 150.499 169.066 153.194 169.063 156.005C169.063 158.102 169.685 160.152 170.85 161.895C172.015 163.639 173.671 164.998 175.608 165.8C177.545 166.603 179.677 166.813 181.733 166.403C183.79 165.994 185.679 164.985 187.162 163.502C188.645 162.019 189.654 160.13 190.063 158.074C190.472 156.017 190.262 153.885 189.46 151.948C188.658 150.011 187.299 148.355 185.555 147.19ZM181.805 159.208C181.172 159.631 180.427 159.857 179.665 159.857C178.644 159.856 177.665 159.45 176.943 158.728C176.22 158.005 175.814 157.026 175.813 156.005C175.813 155.243 176.039 154.499 176.462 153.865C176.886 153.232 177.487 152.738 178.191 152.446C178.895 152.155 179.669 152.079 180.417 152.227C181.164 152.376 181.85 152.743 182.389 153.281C182.928 153.82 183.294 154.506 183.443 155.254C183.592 156.001 183.515 156.775 183.224 157.479C182.932 158.183 182.439 158.785 181.805 159.208Z"
        fill="white"
        fill-rule="evenodd"/>
</svg>
