<svg fill="none" height="288" viewBox="0 0 288 288" width="288" xmlns="http://www.w3.org/2000/svg">
  <path clip-rule="evenodd"
        d="M83.8382 194.64C99.7952 210.597 121.436 219.564 144.002 219.571C166.568 219.563 188.207 210.595 204.163 194.638C220.119 178.682 229.086 157.042 229.093 134.476C229.093 113.027 217.201 77.3574 200.882 72.2274C188.998 68.2697 102.971 66.1659 86.8837 72.2274C68.6992 78.9887 58.9072 112.793 58.9072 134.476C58.9138 157.043 67.8812 178.683 83.8382 194.64ZM91.5457 84.3414C96.9072 82.4763 117.889 81.5448 139.803 81.5447C164.754 81.5448 191.09 82.7103 197.152 84.5754C203.92 86.6724 216.277 112.786 216.277 134.467C216.277 143.927 214.413 153.295 210.793 162.036C207.173 170.776 201.866 178.718 195.177 185.407C188.487 192.097 180.545 197.403 171.805 201.024C163.065 204.644 153.697 206.507 144.236 206.507C134.776 206.507 125.408 204.644 116.668 201.024C107.927 197.403 99.9855 192.097 93.2959 185.407C86.6063 178.718 81.2998 170.776 77.6795 162.036C74.0591 153.295 72.1957 143.927 72.1957 134.467C72.1957 113.252 81.9877 87.8379 91.5457 84.3414ZM116.233 112.579C118.035 113.784 120.154 114.426 122.321 114.426C123.761 114.428 125.186 114.146 126.517 113.596C127.847 113.046 129.055 112.239 130.073 111.221C131.091 110.203 131.898 108.994 132.448 107.664C132.998 106.334 133.28 104.908 133.279 103.469C133.279 101.301 132.636 99.183 131.432 97.381C130.228 95.5791 128.517 94.1746 126.514 93.3453C124.512 92.5159 122.309 92.2989 120.183 92.7217C118.058 93.1445 116.105 94.1881 114.573 95.7206C113.041 97.253 111.997 99.2054 111.574 101.331C111.151 103.457 111.368 105.66 112.198 107.662C113.027 109.664 114.432 111.375 116.233 112.579ZM119.253 100.37C120.063 99.5426 121.164 99.0645 122.321 99.0384V99.0362C122.908 99.0161 123.493 99.1169 124.04 99.3325C124.587 99.548 125.083 99.8736 125.498 100.289C125.914 100.705 126.24 101.201 126.455 101.748C126.671 102.294 126.771 102.879 126.751 103.466C126.713 104.629 126.233 105.734 125.411 106.556C124.588 107.379 123.484 107.858 122.321 107.897C121.164 107.871 120.063 107.392 119.253 106.565C118.444 105.737 117.991 104.625 117.991 103.468C117.991 102.31 118.444 101.198 119.253 100.37ZM164.052 114.426C161.885 114.426 159.766 113.784 157.964 112.58C156.162 111.375 154.758 109.664 153.928 107.662C153.099 105.66 152.882 103.457 153.305 101.331C153.728 99.2054 154.771 97.253 156.304 95.7206C157.836 94.1881 159.789 93.1445 161.914 92.7217C164.04 92.2989 166.243 92.5159 168.245 93.3453C170.247 94.1746 171.959 95.5791 173.163 97.381C174.367 99.183 175.009 101.301 175.009 103.469C175.051 104.919 174.796 106.362 174.259 107.71C173.723 109.058 172.918 110.283 171.892 111.309C170.866 112.335 169.642 113.14 168.294 113.676C166.945 114.212 165.502 114.467 164.052 114.426ZM164.052 99.0384C163.176 99.0384 162.319 99.2983 161.591 99.7851C160.862 100.272 160.294 100.964 159.959 101.773C159.624 102.583 159.536 103.474 159.707 104.333C159.878 105.192 160.3 105.982 160.919 106.601C161.539 107.221 162.328 107.643 163.188 107.814C164.047 107.985 164.938 107.897 165.747 107.562C166.557 107.226 167.249 106.659 167.736 105.93C168.222 105.201 168.482 104.345 168.482 103.469C168.522 102.876 168.435 102.282 168.227 101.727C168.019 101.171 167.694 100.666 167.274 100.246C166.854 99.8262 166.35 99.501 165.794 99.2923C165.238 99.0836 164.644 98.9963 164.052 99.0362V99.0384ZM112.373 183.988C115.248 185.909 118.629 186.935 122.087 186.935C124.389 186.956 126.672 186.518 128.803 185.647C130.934 184.776 132.87 183.489 134.498 181.861C136.126 180.233 137.413 178.297 138.284 176.166C139.156 174.035 139.593 171.752 139.572 169.45C139.572 165.992 138.546 162.611 136.625 159.736C134.704 156.861 131.973 154.62 128.778 153.296C125.583 151.973 122.068 151.627 118.676 152.301C115.284 152.976 112.169 154.641 109.724 157.087C107.278 159.532 105.613 162.647 104.938 166.039C104.264 169.431 104.61 172.946 105.933 176.141C107.257 179.336 109.498 182.067 112.373 183.988ZM117.166 162.082C118.623 161.109 120.335 160.59 122.087 160.59C123.251 160.589 124.403 160.818 125.477 161.263C126.552 161.708 127.529 162.361 128.352 163.183C129.174 164.006 129.827 164.983 130.272 166.058C130.717 167.132 130.946 168.284 130.945 169.448C130.945 171.2 130.426 172.912 129.453 174.369C128.479 175.826 127.096 176.961 125.477 177.632C123.858 178.302 122.077 178.478 120.359 178.136C118.641 177.794 117.062 176.95 115.823 175.712C114.585 174.473 113.741 172.894 113.399 171.176C113.057 169.458 113.233 167.677 113.903 166.058C114.574 164.439 115.709 163.056 117.166 162.082ZM164.052 186.935C160.594 186.935 157.213 185.909 154.338 183.988C151.463 182.067 149.221 179.336 147.898 176.141C146.575 172.946 146.228 169.431 146.903 166.039C147.578 162.647 149.243 159.532 151.688 157.087C154.134 154.641 157.249 152.976 160.641 152.301C164.033 151.627 167.548 151.973 170.743 153.296C173.938 154.62 176.669 156.861 178.59 159.736C180.511 162.611 181.537 165.992 181.537 169.45C181.579 171.758 181.156 174.051 180.292 176.191C179.428 178.332 178.142 180.276 176.51 181.908C174.878 183.54 172.933 184.827 170.793 185.69C168.652 186.554 166.36 186.977 164.052 186.935ZM164.052 160.59C162.3 160.59 160.587 161.109 159.131 162.082C157.674 163.056 156.538 164.439 155.868 166.058C155.197 167.677 155.022 169.458 155.364 171.176C155.706 172.894 156.549 174.473 157.788 175.712C159.027 176.95 160.605 177.794 162.324 178.136C164.042 178.478 165.823 178.302 167.442 177.632C169.06 176.961 170.444 175.826 171.417 174.369C172.391 172.912 172.91 171.2 172.91 169.448C172.91 168.284 172.682 167.132 172.236 166.058C171.791 164.983 171.139 164.006 170.316 163.183C169.494 162.361 168.517 161.708 167.442 161.263C166.367 160.818 165.215 160.589 164.052 160.59ZM134.288 148.317C137.163 150.238 140.544 151.263 144.002 151.263C148.629 151.23 153.057 149.377 156.329 146.105C159.6 142.833 161.453 138.405 161.487 133.779C161.487 130.32 160.461 126.94 158.54 124.065C156.619 121.189 153.888 118.948 150.693 117.625C147.498 116.301 143.983 115.955 140.591 116.63C137.199 117.304 134.084 118.97 131.639 121.415C129.193 123.86 127.528 126.976 126.853 130.367C126.179 133.759 126.525 137.275 127.848 140.47C129.172 143.665 131.413 146.395 134.288 148.317ZM139.081 126.411C140.537 125.438 142.25 124.918 144.002 124.918C145.165 124.918 146.317 125.147 147.392 125.592C148.467 126.037 149.444 126.689 150.266 127.512C151.089 128.335 151.742 129.311 152.187 130.386C152.632 131.461 152.861 132.613 152.86 133.776C152.86 135.528 152.341 137.241 151.367 138.698C150.394 140.154 149.011 141.29 147.392 141.96C145.773 142.631 143.992 142.806 142.274 142.464C140.556 142.123 138.977 141.279 137.738 140.04C136.5 138.801 135.656 137.223 135.314 135.504C134.972 133.786 135.148 132.005 135.818 130.386C136.489 128.768 137.624 127.384 139.081 126.411ZM185.035 151.263C181.577 151.263 178.197 150.238 175.321 148.317C172.446 146.395 170.205 143.665 168.881 140.47C167.558 137.275 167.212 133.759 167.887 130.367C168.561 126.976 170.226 123.86 172.672 121.415C175.117 118.97 178.232 117.304 181.624 116.63C185.016 115.955 188.532 116.301 191.726 117.625C194.921 118.948 197.652 121.189 199.573 124.065C201.495 126.94 202.52 130.32 202.52 133.779C202.523 136.076 202.073 138.351 201.195 140.473C200.317 142.596 199.03 144.525 197.406 146.149C195.781 147.773 193.853 149.061 191.73 149.938C189.607 150.816 187.332 151.266 185.035 151.263ZM185.035 124.918C183.283 124.918 181.571 125.438 180.114 126.411C178.657 127.384 177.522 128.768 176.851 130.386C176.181 132.005 176.005 133.786 176.347 135.504C176.689 137.223 177.533 138.801 178.772 140.04C180.01 141.279 181.589 142.123 183.307 142.464C185.025 142.806 186.807 142.631 188.425 141.96C190.044 141.29 191.427 140.154 192.401 138.698C193.374 137.241 193.894 135.528 193.894 133.776C193.894 132.613 193.665 131.461 193.22 130.386C192.775 129.311 192.122 128.335 191.3 127.512C190.477 126.689 189.5 126.037 188.426 125.592C187.351 125.147 186.199 124.918 185.035 124.918ZM91.6237 148.317C94.499 150.238 97.8795 151.263 101.338 151.263C103.635 151.266 105.91 150.816 108.032 149.938C110.155 149.061 112.084 147.773 113.708 146.149C115.332 144.525 116.62 142.596 117.498 140.473C118.375 138.351 118.825 136.076 118.822 133.779C118.822 130.32 117.797 126.94 115.876 124.065C113.954 121.189 111.224 118.948 108.029 117.625C104.834 116.301 101.318 115.955 97.9266 116.63C94.5349 117.304 91.4194 118.97 88.9741 121.415C86.5288 123.86 84.8635 126.976 84.1889 130.367C83.5142 133.759 83.8605 137.275 85.1839 140.47C86.5073 143.665 88.7483 146.395 91.6237 148.317ZM96.4163 126.411C97.873 125.438 99.5857 124.918 101.338 124.918C102.501 124.918 103.653 125.147 104.728 125.592C105.803 126.037 106.779 126.689 107.602 127.512C108.425 128.335 109.077 129.311 109.522 130.386C109.967 131.461 110.196 132.613 110.196 133.776C110.196 135.528 109.676 137.241 108.703 138.698C107.73 140.154 106.346 141.29 104.728 141.96C103.109 142.631 101.328 142.806 99.6095 142.464C97.8912 142.123 96.3128 141.279 95.074 140.04C93.8351 138.801 92.9914 137.223 92.6496 135.504C92.3078 133.786 92.4833 132.005 93.1537 130.386C93.8242 128.768 94.9596 127.384 96.4163 126.411Z"
        fill="white"
        fill-rule="evenodd"/>
</svg>
