<svg xmlns="http://www.w3.org/2000/svg" style="display:none">
  <symbol id="circutor" viewBox="0 0 178 40">
		<path d="M29.8394 11.7647C29.8394 10.9496 30.1307 10.273 30.7294 9.71935C31.3281 9.16572 32.0239 8.88889 32.833 8.88889C33.6745 8.88889 34.3703 9.16572 34.9367 9.71935C35.4869 10.273 35.7781 10.965 35.7781 11.7647V37.1088C35.7781 37.9239 35.503 38.6005 34.9367 39.1542C34.3865 39.7078 33.6745 39.9846 32.833 39.9846C32.0239 39.9846 31.3281 39.7078 30.7294 39.1542C30.1307 38.6005 29.8394 37.9239 29.8394 37.1088V11.7647Z" fill="currentColor"/>
		<path d="M36.1826 3.21415C36.1826 4.10611 35.8589 4.85967 35.2116 5.4902C34.5643 6.12072 33.7715 6.4283 32.8491 6.4283C31.9267 6.4283 31.1338 6.10534 30.4865 5.4902C29.8393 4.85967 29.5156 4.10611 29.5156 3.21415C29.5156 2.32218 29.8393 1.56863 30.4865 0.938101C31.1338 0.307574 31.9267 0 32.8491 0C33.7715 0 34.5643 0.307574 35.2116 0.938101C35.8589 1.56863 36.1826 2.32218 36.1826 3.21415Z" fill="currentColor"/>
		<path d="M98.5955 9.87313C98.5955 9.05806 98.8707 8.38139 99.4372 7.82776C99.9874 7.27412 100.699 6.99731 101.541 6.99731C102.382 6.99731 103.094 7.27412 103.677 7.82776C104.243 8.38139 104.534 9.07344 104.534 9.87313V35.1557C104.534 35.9246 104.308 36.6321 103.838 37.2318C103.385 37.847 102.77 38.2776 101.994 38.539C99.1135 39.5079 96.1035 39.9846 92.9481 39.9846C91.2652 39.9846 89.6956 39.7386 88.2554 39.2618C86.8152 38.7851 85.553 38.0162 84.4851 36.9858C83.4494 35.9862 82.6727 34.7866 82.1873 33.4025C81.6855 32.0185 81.4429 30.496 81.4429 28.8351V9.87313C81.4429 9.05806 81.7342 8.38139 82.3005 7.82776C82.8831 7.27412 83.5951 6.99731 84.4365 6.99731C85.2456 6.99731 85.9414 7.27412 86.5078 7.82776C87.0904 8.38139 87.3654 9.07344 87.3654 9.87313V29.281C87.3654 31.0189 87.8509 32.3568 88.8379 33.2795C89.8089 34.2022 91.1842 34.6636 92.9481 34.6636C94.9062 34.6636 96.7832 34.4483 98.5793 34.0023V9.87313H98.5955Z" fill="currentColor"/>
		<path d="M24.1271 34.7712C23.5607 34.2638 22.8487 34.0023 22.0073 34.0023H14.952H14.8549C12.0555 34.0023 9.8871 33.1872 8.38219 31.5571C6.8611 29.927 6.10055 27.7739 6.10055 25.0673V16.4552C6.10055 13.7639 6.8611 11.5955 8.38219 9.9654C9.90328 8.36601 12.0555 7.53557 14.8549 7.53557H14.952H22.0073C22.8811 7.53557 23.5931 7.28951 24.1433 6.79739C24.5155 6.45906 24.7582 6.02845 24.8877 5.52096C24.9362 5.29027 24.9686 5.0596 24.9686 4.79816C24.9686 4.02922 24.6935 3.38331 24.1109 2.87582C23.5446 2.36832 22.8326 2.10688 21.9911 2.10688H14.8549C12.6218 2.10688 10.5991 2.44521 8.78673 3.13726C6.95819 3.8293 5.40473 4.79816 4.094 6.04383C2.78327 7.30489 1.78 8.812 1.068 10.5959C0.356 12.3645 0 14.333 0 16.4706V25.0827C0 27.2357 0.356 29.1888 1.068 30.9573C1.78 32.7259 2.78327 34.2484 4.094 35.5094C5.40473 36.7705 6.95819 37.7393 8.78673 38.416C10.6153 39.1081 12.638 39.4464 14.8549 39.4464H22.0073C22.8811 39.4464 23.5931 39.2003 24.1433 38.7082C24.6935 38.2161 24.9686 37.5548 24.9686 36.709C24.9686 36.4629 24.9362 36.2476 24.8715 36.0323C24.7582 35.5402 24.5155 35.125 24.1271 34.7712Z" fill="currentColor"/>
		<path d="M76.9446 34.8635C76.3782 34.356 75.6985 34.11 74.8732 34.11H70.1967H69.8407V34.1253C68.0769 34.1253 66.7014 33.664 65.7306 32.7413C64.7596 31.8185 64.258 30.4806 64.258 28.7428V18.1776C64.258 16.4706 64.7435 15.148 65.7306 14.2099C66.7177 13.2564 68.0769 12.7951 69.8407 12.7951H69.9055H74.8085C75.65 12.7951 76.3458 12.5029 76.8798 12.0262C77.4138 11.5494 77.6889 10.9035 77.6889 10.0731C77.6889 9.79624 77.6404 9.5348 77.5595 9.30412C77.43 8.88889 77.2034 8.5198 76.8637 8.21224C76.3135 7.72012 75.6338 7.47405 74.8247 7.47405H69.8569C66.4425 7.47405 63.6593 8.50443 61.507 10.5806C59.4034 12.6259 58.3354 15.2864 58.3354 18.5775V28.2968C58.3354 31.634 59.3872 34.3253 61.507 36.3552C63.6593 38.4314 66.4425 39.4617 69.8569 39.4617H74.8895C75.7471 39.4617 76.4428 39.2157 76.9931 38.7389C77.3653 38.416 77.5918 38.0008 77.7051 37.524C77.7698 37.2934 77.8021 37.0473 77.8021 36.7705C77.7698 36.0015 77.4947 35.371 76.9446 34.8635Z" fill="currentColor"/>
		<path d="M47.2996 37.0934C47.2996 35.6171 47.2996 16.0246 47.2996 16.0246C47.2996 14.133 48.5132 12.7951 50.6492 12.7951C50.6492 12.7951 52.3969 12.8566 53.1897 12.8566C54.8889 12.8566 56.0702 11.7801 56.0702 10.2115C56.0702 8.64283 54.8727 7.64322 53.1897 7.45867C52.4777 7.38178 50.6492 7.32026 50.6492 7.32026C44.5163 7.32026 41.3608 10.8574 41.3608 16.4245C41.3608 16.4245 41.3608 35.6786 41.3608 37.1088C41.3608 38.5698 42.5745 40 44.3221 40C46.0697 39.9846 47.2996 38.5544 47.2996 37.0934Z" fill="currentColor"/>
		<path d="M169.23 37.0934C169.23 35.6171 169.23 16.0246 169.23 16.0246C169.23 14.133 170.443 12.7951 172.579 12.7951C172.579 12.7951 174.327 12.8566 175.12 12.8566C176.819 12.8566 178 11.7801 178 10.2115C178 8.64283 176.803 7.64322 175.12 7.45867C174.408 7.38178 172.579 7.32026 172.579 7.32026C166.446 7.32026 163.291 10.8574 163.291 16.4245C163.291 16.4245 163.291 35.6786 163.291 37.1088C163.291 38.5698 164.505 40 166.252 40C168 39.9846 169.23 38.5544 169.23 37.0934Z" fill="currentColor"/>
		<path d="M123.484 34.6636C123.419 34.6175 123.37 34.5713 123.306 34.5252C122.852 34.2484 122.286 34.0946 121.639 34.0946C121.299 34.0946 120.797 34.11 120.312 34.1253C119.665 34.1407 119.098 34.1561 119.098 34.1561C117.14 34.1561 115.959 33.0181 115.781 31.3726C115.765 31.2341 115.749 31.0957 115.749 30.9419C115.749 30.9266 115.749 30.9266 115.749 30.9112C115.749 30.9112 115.749 18.5929 115.749 12.7951H121.332C122.917 12.7951 124.325 11.7493 124.325 10.1346C124.325 8.5198 123.014 7.47405 121.332 7.47405H115.749V2.90658C115.749 2.09151 115.457 1.39946 114.891 0.845831C114.309 0.292198 113.629 0.0153809 112.82 0.0153809C111.978 0.0153809 111.266 0.292198 110.684 0.845831C110.101 1.39946 109.826 2.09151 109.826 2.90658V10.2268V30.5421C109.826 31.8954 110.02 33.1411 110.393 34.233C110.409 34.2945 110.425 34.356 110.457 34.4022C110.473 34.4637 110.506 34.5252 110.538 34.5867C111.331 36.6321 112.82 38.1392 114.956 38.9543C116.072 39.3695 117.351 39.6002 118.823 39.6309C118.92 39.6309 119.017 39.6463 119.115 39.6463C119.115 39.6463 120.943 39.5848 121.655 39.5079C123.338 39.3387 124.535 38.3237 124.535 36.7551C124.519 35.8631 124.131 35.1403 123.484 34.6636Z" fill="currentColor"/>
		<path d="M130.862 23.4525C130.862 17.5625 135.587 12.7951 143.063 12.7951C146.251 12.7951 151.931 13.1488 154.472 13.3333C155.006 13.3641 155.281 12.7951 154.957 12.4414C151.947 9.1042 146.882 6.92042 142.076 6.92042C132.578 6.92042 124.891 14.3176 124.891 23.4525C124.891 25.4364 125.263 27.3433 125.927 29.1119C126.089 29.5425 126.461 29.8501 126.995 29.8501H132.027C132.513 29.8501 132.739 29.3579 132.513 29.0196C131.461 27.3895 130.862 25.4979 130.862 23.4525Z" fill="currentColor"/>
		<ellipse cx="142.076" cy="23.4525" rx="6.37564" ry="6.1361" fill="currentColor"/>
		<path d="M153.29 23.4525C153.29 29.3425 148.565 34.11 141.089 34.11C137.901 34.11 132.222 33.7563 129.681 33.5717C129.147 33.5409 128.872 34.11 129.196 34.4637C132.205 37.8009 137.27 39.9846 142.076 39.9846C151.575 39.9846 159.261 32.5875 159.261 23.4525C159.261 21.4687 158.889 19.5617 158.225 17.7931C158.064 17.3625 157.692 17.055 157.158 17.055H152.125C151.64 17.055 151.413 17.5471 151.64 17.8854C152.675 19.5156 153.29 21.4225 153.29 23.4525Z" fill="currentColor"/>
	 </symbol>
</svg>
